<?xml version="1.0" encoding="UTF-8" standalone="no"?>
<svg xmlns="http://www.w3.org/2000/svg" version="1.2" xmlns:xlink="http://www.w3.org/1999/xlink" width="1024" height="1024"><rect x="0" y="0" width="1024" height="1024" fill="black"></rect><g transform="rotate(0.0 512 512)"><rect x="422.0" y="422.0" width="180" height="180" stroke="rgb(116, 116, 116)" stroke-width="3.4725085244365275" fill="none" stroke-opacity="0.04052874848216646"></rect></g><g transform="rotate(0.5775 512 512)"><rect x="419.0" y="419.0" width="186" height="186" stroke="rgb(159, 159, 159)" stroke-width="3.8588184174786653" fill="none" stroke-opacity="0.007855663390323463"></rect></g><g transform="rotate(1.155 512 512)"><rect x="416.0" y="416.0" width="192" height="192" stroke="rgb(222, 222, 222)" stroke-width="3.5864333769692367" fill="none" stroke-opacity="0.02946748692427107"></rect></g><g transform="rotate(1.7325000000000002 512 512)"><rect x="413.0" y="413.0" width="198" height="198" stroke="rgb(244, 244, 244)" stroke-width="3.222137937018002" fill="none" stroke-opacity="0.09401093884262754"></rect></g><g transform="rotate(2.31 512 512)"><rect x="410.0" y="410.0" width="204" height="204" stroke="rgb(167, 167, 167)" stroke-width="3.3264378946824973" fill="none" stroke-opacity="0.09118570024535828"></rect></g><g transform="rotate(2.8875 512 512)"><rect x="407.0" y="407.0" width="210" height="210" stroke="rgb(151, 151, 151)" stroke-width="3.816141890057805" fill="none" stroke-opacity="0.08054817489073729"></rect></g><g transform="rotate(3.4650000000000003 512 512)"><rect x="404.0" y="404.0" width="216" height="216" stroke="rgb(238, 238, 238)" stroke-width="3.3750951589223934" fill="none" stroke-opacity="0.10479343631396339"></rect></g><g transform="rotate(4.0425 512 512)"><rect x="401.0" y="401.0" width="222" height="222" stroke="rgb(242, 242, 242)" stroke-width="3.4502247425480985" fill="none" stroke-opacity="0.050132928642227445"></rect></g><g transform="rotate(4.62 512 512)"><rect x="398.0" y="398.0" width="228" height="228" stroke="rgb(251, 251, 251)" stroke-width="3.841232006657652" fill="none" stroke-opacity="0.04497560109673036"></rect></g><g transform="rotate(5.197500000000001 512 512)"><rect x="395.0" y="395.0" width="234" height="234" stroke="rgb(187, 187, 187)" stroke-width="3.26673264831152" fill="none" stroke-opacity="0.12514314163931614"></rect></g><g transform="rotate(5.775 512 512)"><rect x="392.0" y="392.0" width="240" height="240" stroke="rgb(231, 231, 231)" stroke-width="3.39700085447148" fill="none" stroke-opacity="0.14242345524503863"></rect></g><g transform="rotate(6.3525 512 512)"><rect x="389.0" y="389.0" width="246" height="246" stroke="rgb(194, 194, 194)" stroke-width="3.9292282723946563" fill="none" stroke-opacity="0.11942674969166289"></rect></g><g transform="rotate(6.930000000000001 512 512)"><rect x="386.0" y="386.0" width="252" height="252" stroke="rgb(235, 235, 235)" stroke-width="3.257682156447629" fill="none" stroke-opacity="0.1651743525659283"></rect></g><g transform="rotate(7.5075 512 512)"><rect x="383.0" y="383.0" width="258" height="258" stroke="rgb(103, 103, 103)" stroke-width="3.3560701475744907" fill="none" stroke-opacity="0.16879396355625367"></rect></g><g transform="rotate(8.085 512 512)"><rect x="380.0" y="380.0" width="264" height="264" stroke="rgb(96, 96, 96)" stroke-width="3.1707906845118816" fill="none" stroke-opacity="0.1434749546773931"></rect></g><g transform="rotate(8.6625 512 512)"><rect x="377.0" y="377.0" width="270" height="270" stroke="rgb(235, 235, 235)" stroke-width="3.040810189669677" fill="none" stroke-opacity="0.07699376053362726"></rect></g><g transform="rotate(9.24 512 512)"><rect x="374.0" y="374.0" width="276" height="276" stroke="rgb(218, 218, 218)" stroke-width="3.6713271302589914" fill="none" stroke-opacity="0.16552831603404292"></rect></g><g transform="rotate(9.817499999999999 512 512)"><rect x="371.0" y="371.0" width="282" height="282" stroke="rgb(193, 193, 193)" stroke-width="3.329979428036628" fill="none" stroke-opacity="0.1184029814777199"></rect></g><g transform="rotate(10.395000000000001 512 512)"><rect x="368.0" y="368.0" width="288" height="288" stroke="rgb(135, 135, 135)" stroke-width="3.8299826762792737" fill="none" stroke-opacity="0.12626564872634305"></rect></g><g transform="rotate(10.9725 512 512)"><rect x="365.0" y="365.0" width="294" height="294" stroke="rgb(121, 121, 121)" stroke-width="3.32500198496333" fill="none" stroke-opacity="0.1272647397711721"></rect></g><g transform="rotate(11.55 512 512)"><rect x="362.0" y="362.0" width="300" height="300" stroke="rgb(175, 175, 175)" stroke-width="3.0463565439372857" fill="none" stroke-opacity="0.2115333291536087"></rect></g><g transform="rotate(12.1275 512 512)"><rect x="359.0" y="359.0" width="306" height="306" stroke="rgb(113, 113, 113)" stroke-width="3.0091464921467255" fill="none" stroke-opacity="0.13300846345561546"></rect></g><g transform="rotate(12.705 512 512)"><rect x="356.0" y="356.0" width="312" height="312" stroke="rgb(204, 204, 204)" stroke-width="3.423496725408464" fill="none" stroke-opacity="0.14709954887562765"></rect></g><g transform="rotate(13.2825 512 512)"><rect x="353.0" y="353.0" width="318" height="318" stroke="rgb(236, 236, 236)" stroke-width="3.646618237586037" fill="none" stroke-opacity="0.1629091876451892"></rect></g><g transform="rotate(13.860000000000001 512 512)"><rect x="350.0" y="350.0" width="324" height="324" stroke="rgb(115, 115, 115)" stroke-width="3.785154297492495" fill="none" stroke-opacity="0.19906520271239486"></rect></g><g transform="rotate(14.4375 512 512)"><rect x="347.0" y="347.0" width="330" height="330" stroke="rgb(169, 169, 169)" stroke-width="3.286261408855502" fill="none" stroke-opacity="0.2082755318931805"></rect></g><g transform="rotate(15.015 512 512)"><rect x="344.0" y="344.0" width="336" height="336" stroke="rgb(127, 127, 127)" stroke-width="3.6730179327397714" fill="none" stroke-opacity="0.13637404519913304"></rect></g><g transform="rotate(15.5925 512 512)"><rect x="341.0" y="341.0" width="342" height="342" stroke="rgb(253, 253, 253)" stroke-width="3.857152176495049" fill="none" stroke-opacity="0.2161552617263539"></rect></g><g transform="rotate(16.17 512 512)"><rect x="338.0" y="338.0" width="348" height="348" stroke="rgb(209, 209, 209)" stroke-width="3.975949307960447" fill="none" stroke-opacity="0.2635286911403071"></rect></g><g transform="rotate(16.7475 512 512)"><rect x="335.0" y="335.0" width="354" height="354" stroke="rgb(97, 97, 97)" stroke-width="3.8510201310923553" fill="none" stroke-opacity="0.23060983558418702"></rect></g><g transform="rotate(17.325 512 512)"><rect x="332.0" y="332.0" width="360" height="360" stroke="rgb(213, 213, 213)" stroke-width="3.3130846254492523" fill="none" stroke-opacity="0.23956421282473708"></rect></g><g transform="rotate(17.902500000000003 512 512)"><rect x="329.0" y="329.0" width="366" height="366" stroke="rgb(198, 198, 198)" stroke-width="3.133458830123536" fill="none" stroke-opacity="0.2053149157585596"></rect></g><g transform="rotate(18.48 512 512)"><rect x="326.0" y="326.0" width="372" height="372" stroke="rgb(152, 152, 152)" stroke-width="3.611939168038533" fill="none" stroke-opacity="0.16714989123059878"></rect></g><g transform="rotate(19.0575 512 512)"><rect x="323.0" y="323.0" width="378" height="378" stroke="rgb(243, 243, 243)" stroke-width="3.1519263558807684" fill="none" stroke-opacity="0.27220665927801724"></rect></g><g transform="rotate(19.634999999999998 512 512)"><rect x="320.0" y="320.0" width="384" height="384" stroke="rgb(213, 213, 213)" stroke-width="3.513809555953002" fill="none" stroke-opacity="0.2560828112315323"></rect></g><g transform="rotate(20.212500000000002 512 512)"><rect x="317.0" y="317.0" width="390" height="390" stroke="rgb(122, 122, 122)" stroke-width="3.5563662485620364" fill="none" stroke-opacity="0.25521225559141514"></rect></g><g transform="rotate(20.790000000000003 512 512)"><rect x="314.0" y="314.0" width="396" height="396" stroke="rgb(190, 190, 190)" stroke-width="3.4024001919572715" fill="none" stroke-opacity="0.2307137940992496"></rect></g><g transform="rotate(21.3675 512 512)"><rect x="311.0" y="311.0" width="402" height="402" stroke="rgb(248, 248, 248)" stroke-width="3.3137962287365244" fill="none" stroke-opacity="0.2676108912962639"></rect></g><g transform="rotate(21.945 512 512)"><rect x="308.0" y="308.0" width="408" height="408" stroke="rgb(232, 232, 232)" stroke-width="3.9164156850119585" fill="none" stroke-opacity="0.3091756503968674"></rect></g><g transform="rotate(22.5225 512 512)"><rect x="305.0" y="305.0" width="414" height="414" stroke="rgb(144, 144, 144)" stroke-width="3.280441806168226" fill="none" stroke-opacity="0.21408512819793696"></rect></g><g transform="rotate(23.1 512 512)"><rect x="302.0" y="302.0" width="420" height="420" stroke="rgb(252, 252, 252)" stroke-width="3.279696614654238" fill="none" stroke-opacity="0.3189442222966392"></rect></g><g transform="rotate(23.677500000000002 512 512)"><rect x="299.0" y="299.0" width="426" height="426" stroke="rgb(189, 189, 189)" stroke-width="3.3460793583097916" fill="none" stroke-opacity="0.31209470100548475"></rect></g><g transform="rotate(24.255 512 512)"><rect x="296.0" y="296.0" width="432" height="432" stroke="rgb(170, 170, 170)" stroke-width="3.498292545286164" fill="none" stroke-opacity="0.3068918279824126"></rect></g><g transform="rotate(24.8325 512 512)"><rect x="293.0" y="293.0" width="438" height="438" stroke="rgb(218, 218, 218)" stroke-width="3.840476495649282" fill="none" stroke-opacity="0.25137082632659774"></rect></g><g transform="rotate(25.41 512 512)"><rect x="290.0" y="290.0" width="444" height="444" stroke="rgb(139, 139, 139)" stroke-width="3.345749629579519" fill="none" stroke-opacity="0.3058376813302429"></rect></g><g transform="rotate(25.9875 512 512)"><rect x="287.0" y="287.0" width="450" height="450" stroke="rgb(185, 185, 185)" stroke-width="3.499570566312627" fill="none" stroke-opacity="0.2773599610341786"></rect></g><g transform="rotate(26.565 512 512)"><rect x="284.0" y="284.0" width="456" height="456" stroke="rgb(229, 229, 229)" stroke-width="3.8270512610299376" fill="none" stroke-opacity="0.3177669893838998"></rect></g><g transform="rotate(27.1425 512 512)"><rect x="281.0" y="281.0" width="462" height="462" stroke="rgb(112, 112, 112)" stroke-width="3.740835301663469" fill="none" stroke-opacity="0.35059629141639354"></rect></g><g transform="rotate(27.720000000000002 512 512)"><rect x="278.0" y="278.0" width="468" height="468" stroke="rgb(240, 240, 240)" stroke-width="3.79742528742265" fill="none" stroke-opacity="0.3125955526661907"></rect></g><g transform="rotate(28.2975 512 512)"><rect x="275.0" y="275.0" width="474" height="474" stroke="rgb(190, 190, 190)" stroke-width="3.057797902605915" fill="none" stroke-opacity="0.2507414436145649"></rect></g><g transform="rotate(28.875 512 512)"><rect x="272.0" y="272.0" width="480" height="480" stroke="rgb(134, 134, 134)" stroke-width="3.2620810095825434" fill="none" stroke-opacity="0.31017513443505307"></rect></g><g transform="rotate(29.4525 512 512)"><rect x="269.0" y="269.0" width="486" height="486" stroke="rgb(122, 122, 122)" stroke-width="3.4806590838492633" fill="none" stroke-opacity="0.35937162717014004"></rect></g><g transform="rotate(30.03 512 512)"><rect x="266.0" y="266.0" width="492" height="492" stroke="rgb(110, 110, 110)" stroke-width="3.3224493456344213" fill="none" stroke-opacity="0.3263509633330989"></rect></g><g transform="rotate(30.6075 512 512)"><rect x="263.0" y="263.0" width="498" height="498" stroke="rgb(186, 186, 186)" stroke-width="3.1843329757473327" fill="none" stroke-opacity="0.3452244363415457"></rect></g><g transform="rotate(31.185 512 512)"><rect x="260.0" y="260.0" width="504" height="504" stroke="rgb(150, 150, 150)" stroke-width="3.317382103607155" fill="none" stroke-opacity="0.2913406914353529"></rect></g><g transform="rotate(31.7625 512 512)"><rect x="257.0" y="257.0" width="510" height="510" stroke="rgb(227, 227, 227)" stroke-width="3.580987928923493" fill="none" stroke-opacity="0.3992326746770045"></rect></g><g transform="rotate(32.34 512 512)"><rect x="254.0" y="254.0" width="516" height="516" stroke="rgb(241, 241, 241)" stroke-width="3.565854617340494" fill="none" stroke-opacity="0.322657067738252"></rect></g><g transform="rotate(32.917500000000004 512 512)"><rect x="251.0" y="251.0" width="522" height="522" stroke="rgb(174, 174, 174)" stroke-width="3.6884813287604006" fill="none" stroke-opacity="0.32419695427022865"></rect></g><g transform="rotate(33.495 512 512)"><rect x="248.0" y="248.0" width="528" height="528" stroke="rgb(156, 156, 156)" stroke-width="3.710975166692852" fill="none" stroke-opacity="0.35575732156688844"></rect></g><g transform="rotate(34.0725 512 512)"><rect x="245.0" y="245.0" width="534" height="534" stroke="rgb(105, 105, 105)" stroke-width="3.9992125217743455" fill="none" stroke-opacity="0.3717943575650911"></rect></g><g transform="rotate(34.65 512 512)"><rect x="242.0" y="242.0" width="540" height="540" stroke="rgb(104, 104, 104)" stroke-width="3.531615913595706" fill="none" stroke-opacity="0.35369273530243084"></rect></g><g transform="rotate(35.2275 512 512)"><rect x="239.0" y="239.0" width="546" height="546" stroke="rgb(165, 165, 165)" stroke-width="3.7192705673512227" fill="none" stroke-opacity="0.36193184851935256"></rect></g><g transform="rotate(35.80500000000001 512 512)"><rect x="236.0" y="236.0" width="552" height="552" stroke="rgb(200, 200, 200)" stroke-width="3.5939584777801725" fill="none" stroke-opacity="0.3882337392568122"></rect></g><g transform="rotate(36.3825 512 512)"><rect x="233.0" y="233.0" width="558" height="558" stroke="rgb(181, 181, 181)" stroke-width="3.5418464266306557" fill="none" stroke-opacity="0.39936093473104983"></rect></g><g transform="rotate(36.96 512 512)"><rect x="230.0" y="230.0" width="564" height="564" stroke="rgb(249, 249, 249)" stroke-width="3.205025221989795" fill="none" stroke-opacity="0.35234973812428894"></rect></g><g transform="rotate(37.5375 512 512)"><rect x="227.0" y="227.0" width="570" height="570" stroke="rgb(221, 221, 221)" stroke-width="3.451365799552651" fill="none" stroke-opacity="0.3683381095329308"></rect></g><g transform="rotate(38.115 512 512)"><rect x="224.0" y="224.0" width="576" height="576" stroke="rgb(219, 219, 219)" stroke-width="3.076309854464021" fill="none" stroke-opacity="0.4139790232357199"></rect></g><g transform="rotate(38.6925 512 512)"><rect x="221.0" y="221.0" width="582" height="582" stroke="rgb(123, 123, 123)" stroke-width="3.518446994817002" fill="none" stroke-opacity="0.43279275752972196"></rect></g><g transform="rotate(39.269999999999996 512 512)"><rect x="218.0" y="218.0" width="588" height="588" stroke="rgb(99, 99, 99)" stroke-width="3.258508476433479" fill="none" stroke-opacity="0.38979217248701337"></rect></g><g transform="rotate(39.8475 512 512)"><rect x="215.0" y="215.0" width="594" height="594" stroke="rgb(181, 181, 181)" stroke-width="3.7865022594495863" fill="none" stroke-opacity="0.3945333198095842"></rect></g><g transform="rotate(40.425000000000004 512 512)"><rect x="212.0" y="212.0" width="600" height="600" stroke="rgb(215, 215, 215)" stroke-width="3.446802168214118" fill="none" stroke-opacity="0.47205118654612394"></rect></g><g transform="rotate(41.002500000000005 512 512)"><rect x="209.0" y="209.0" width="606" height="606" stroke="rgb(202, 202, 202)" stroke-width="3.9175996356938345" fill="none" stroke-opacity="0.4470510851962505"></rect></g><g transform="rotate(41.580000000000005 512 512)"><rect x="206.0" y="206.0" width="612" height="612" stroke="rgb(177, 177, 177)" stroke-width="3.4369841789527" fill="none" stroke-opacity="0.43572445316481395"></rect></g><g transform="rotate(42.1575 512 512)"><rect x="203.0" y="203.0" width="618" height="618" stroke="rgb(228, 228, 228)" stroke-width="3.960236087814972" fill="none" stroke-opacity="0.45427068642585655"></rect></g><g transform="rotate(42.735 512 512)"><rect x="200.0" y="200.0" width="624" height="624" stroke="rgb(120, 120, 120)" stroke-width="3.4209254032406102" fill="none" stroke-opacity="0.4091225568961634"></rect></g><g transform="rotate(43.3125 512 512)"><rect x="197.0" y="197.0" width="630" height="630" stroke="rgb(234, 234, 234)" stroke-width="3.830215781151099" fill="none" stroke-opacity="0.3754334044374833"></rect></g><g transform="rotate(43.89 512 512)"><rect x="194.0" y="194.0" width="636" height="636" stroke="rgb(196, 196, 196)" stroke-width="3.108511684777773" fill="none" stroke-opacity="0.431468391568492"></rect></g><g transform="rotate(44.4675 512 512)"><rect x="191.0" y="191.0" width="642" height="642" stroke="rgb(151, 151, 151)" stroke-width="3.7162755778208583" fill="none" stroke-opacity="0.3952042458084768"></rect></g><g transform="rotate(45.045 512 512)"><rect x="188.0" y="188.0" width="648" height="648" stroke="rgb(200, 200, 200)" stroke-width="3.343481669510579" fill="none" stroke-opacity="0.3978641770993458"></rect></g><g transform="rotate(45.6225 512 512)"><rect x="185.0" y="185.0" width="654" height="654" stroke="rgb(132, 132, 132)" stroke-width="3.695980129257265" fill="none" stroke-opacity="0.45707122482036866"></rect></g><g transform="rotate(46.2 512 512)"><rect x="182.0" y="182.0" width="660" height="660" stroke="rgb(220, 220, 220)" stroke-width="3.5118761669676157" fill="none" stroke-opacity="0.44603297472905035"></rect></g><g transform="rotate(46.7775 512 512)"><rect x="179.0" y="179.0" width="666" height="666" stroke="rgb(156, 156, 156)" stroke-width="3.389365259465385" fill="none" stroke-opacity="0.4833948328253298"></rect></g><g transform="rotate(47.355000000000004 512 512)"><rect x="176.0" y="176.0" width="672" height="672" stroke="rgb(142, 142, 142)" stroke-width="3.5215424612667587" fill="none" stroke-opacity="0.5283188496821629"></rect></g><g transform="rotate(47.9325 512 512)"><rect x="173.0" y="173.0" width="678" height="678" stroke="rgb(130, 130, 130)" stroke-width="3.205620098252636" fill="none" stroke-opacity="0.4887906875559961"></rect></g><g transform="rotate(48.51 512 512)"><rect x="170.0" y="170.0" width="684" height="684" stroke="rgb(230, 230, 230)" stroke-width="3.4349054242459243" fill="none" stroke-opacity="0.46966212756434794"></rect></g><g transform="rotate(49.0875 512 512)"><rect x="167.0" y="167.0" width="690" height="690" stroke="rgb(225, 225, 225)" stroke-width="3.8226571659220214" fill="none" stroke-opacity="0.49934702357366867"></rect></g><g transform="rotate(49.665 512 512)"><rect x="164.0" y="164.0" width="696" height="696" stroke="rgb(241, 241, 241)" stroke-width="3.7687318759812154" fill="none" stroke-opacity="0.5014185269455955"></rect></g><g transform="rotate(50.24250000000001 512 512)"><rect x="161.0" y="161.0" width="702" height="702" stroke="rgb(241, 241, 241)" stroke-width="3.354754910830797" fill="none" stroke-opacity="0.4569333340885836"></rect></g><g transform="rotate(50.82 512 512)"><rect x="158.0" y="158.0" width="708" height="708" stroke="rgb(206, 206, 206)" stroke-width="3.4157119181342948" fill="none" stroke-opacity="0.5078662805931904"></rect></g><g transform="rotate(51.3975 512 512)"><rect x="155.0" y="155.0" width="714" height="714" stroke="rgb(224, 224, 224)" stroke-width="3.5367137286781016" fill="none" stroke-opacity="0.5092237830942228"></rect></g><g transform="rotate(51.975 512 512)"><rect x="152.0" y="152.0" width="720" height="720" stroke="rgb(223, 223, 223)" stroke-width="3.803321749703719" fill="none" stroke-opacity="0.5213066945874391"></rect></g><g transform="rotate(52.5525 512 512)"><rect x="149.0" y="149.0" width="726" height="726" stroke="rgb(120, 120, 120)" stroke-width="3.2144185014756514" fill="none" stroke-opacity="0.5522002802808639"></rect></g><g transform="rotate(53.13 512 512)"><rect x="146.0" y="146.0" width="732" height="732" stroke="rgb(200, 200, 200)" stroke-width="3.0737023784979893" fill="none" stroke-opacity="0.5716828842590966"></rect></g><g transform="rotate(53.707499999999996 512 512)"><rect x="143.0" y="143.0" width="738" height="738" stroke="rgb(235, 235, 235)" stroke-width="3.9647481451318036" fill="none" stroke-opacity="0.5707106999598277"></rect></g><g transform="rotate(54.285 512 512)"><rect x="140.0" y="140.0" width="744" height="744" stroke="rgb(192, 192, 192)" stroke-width="3.360399312794705" fill="none" stroke-opacity="0.5623499563850166"></rect></g><g transform="rotate(54.862500000000004 512 512)"><rect x="137.0" y="137.0" width="750" height="750" stroke="rgb(146, 146, 146)" stroke-width="3.458936382171004" fill="none" stroke-opacity="0.5160175208792328"></rect></g><g transform="rotate(55.440000000000005 512 512)"><rect x="134.0" y="134.0" width="756" height="756" stroke="rgb(247, 247, 247)" stroke-width="3.848095152529324" fill="none" stroke-opacity="0.5418688876475108"></rect></g><g transform="rotate(56.017500000000005 512 512)"><rect x="131.0" y="131.0" width="762" height="762" stroke="rgb(216, 216, 216)" stroke-width="3.87241888961505" fill="none" stroke-opacity="0.5842956369151013"></rect></g><g transform="rotate(56.595 512 512)"><rect x="128.0" y="128.0" width="768" height="768" stroke="rgb(253, 253, 253)" stroke-width="3.7523902417933472" fill="none" stroke-opacity="0.5276654825242478"></rect></g><g transform="rotate(57.1725 512 512)"><rect x="125.0" y="125.0" width="774" height="774" stroke="rgb(236, 236, 236)" stroke-width="3.573671982295996" fill="none" stroke-opacity="0.5053234844824693"></rect></g><g transform="rotate(57.75 512 512)"><rect x="122.0" y="122.0" width="780" height="780" stroke="rgb(148, 148, 148)" stroke-width="3.2488345900684434" fill="none" stroke-opacity="0.5909051067373005"></rect></g><g transform="rotate(58.3275 512 512)"><rect x="119.0" y="119.0" width="786" height="786" stroke="rgb(207, 207, 207)" stroke-width="3.2904557883427423" fill="none" stroke-opacity="0.5574923593036357"></rect></g><g transform="rotate(58.905 512 512)"><rect x="116.0" y="116.0" width="792" height="792" stroke="rgb(144, 144, 144)" stroke-width="3.142494498022315" fill="none" stroke-opacity="0.5436520648576781"></rect></g><g transform="rotate(59.4825 512 512)"><rect x="113.0" y="113.0" width="798" height="798" stroke="rgb(180, 180, 180)" stroke-width="3.9532445702010373" fill="none" stroke-opacity="0.5690520162444264"></rect></g><g transform="rotate(60.06 512 512)"><rect x="110.0" y="110.0" width="804" height="804" stroke="rgb(165, 165, 165)" stroke-width="3.708189267176307" fill="none" stroke-opacity="0.6270877810385289"></rect></g><g transform="rotate(60.6375 512 512)"><rect x="107.0" y="107.0" width="810" height="810" stroke="rgb(239, 239, 239)" stroke-width="3.4046064211084417" fill="none" stroke-opacity="0.5867680756248476"></rect></g><g transform="rotate(61.215 512 512)"><rect x="104.0" y="104.0" width="816" height="816" stroke="rgb(234, 234, 234)" stroke-width="3.982114839740138" fill="none" stroke-opacity="0.6243924447477752"></rect></g><g transform="rotate(61.792500000000004 512 512)"><rect x="101.0" y="101.0" width="822" height="822" stroke="rgb(173, 173, 173)" stroke-width="3.795156327342943" fill="none" stroke-opacity="0.6539247324426098"></rect></g><g transform="rotate(62.37 512 512)"><rect x="98.0" y="98.0" width="828" height="828" stroke="rgb(129, 129, 129)" stroke-width="3.2609705647272706" fill="none" stroke-opacity="0.5795969827996357"></rect></g><g transform="rotate(62.947500000000005 512 512)"><rect x="95.0" y="95.0" width="834" height="834" stroke="rgb(131, 131, 131)" stroke-width="3.869852251252167" fill="none" stroke-opacity="0.6296351184734519"></rect></g><g transform="rotate(63.525 512 512)"><rect x="92.0" y="92.0" width="840" height="840" stroke="rgb(233, 233, 233)" stroke-width="3.906132261422868" fill="none" stroke-opacity="0.565893151350112"></rect></g><g transform="rotate(64.10249999999999 512 512)"><rect x="89.0" y="89.0" width="846" height="846" stroke="rgb(222, 222, 222)" stroke-width="3.794352269084068" fill="none" stroke-opacity="0.6744763224405421"></rect></g><g transform="rotate(64.68 512 512)"><rect x="86.0" y="86.0" width="852" height="852" stroke="rgb(243, 243, 243)" stroke-width="3.5772050326885694" fill="none" stroke-opacity="0.6472644882737213"></rect></g><g transform="rotate(65.2575 512 512)"><rect x="83.0" y="83.0" width="858" height="858" stroke="rgb(252, 252, 252)" stroke-width="3.944554654982292" fill="none" stroke-opacity="0.6375358386641068"></rect></g><g transform="rotate(65.83500000000001 512 512)"><rect x="80.0" y="80.0" width="864" height="864" stroke="rgb(128, 128, 128)" stroke-width="3.878904887379991" fill="none" stroke-opacity="0.6929455709843121"></rect></g><g transform="rotate(66.41250000000001 512 512)"><rect x="77.0" y="77.0" width="870" height="870" stroke="rgb(195, 195, 195)" stroke-width="3.15107275917147" fill="none" stroke-opacity="0.5925146794724561"></rect></g><g transform="rotate(66.99 512 512)"><rect x="74.0" y="74.0" width="876" height="876" stroke="rgb(253, 253, 253)" stroke-width="3.323243910055326" fill="none" stroke-opacity="0.6368154711956897"></rect></g><g transform="rotate(67.56750000000001 512 512)"><rect x="71.0" y="71.0" width="882" height="882" stroke="rgb(253, 253, 253)" stroke-width="3.675152443081367" fill="none" stroke-opacity="0.5987875511985026"></rect></g><g transform="rotate(68.145 512 512)"><rect x="68.0" y="68.0" width="888" height="888" stroke="rgb(234, 234, 234)" stroke-width="3.5391417063499357" fill="none" stroke-opacity="0.6059279704733376"></rect></g><g transform="rotate(68.72250000000001 512 512)"><rect x="65.0" y="65.0" width="894" height="894" stroke="rgb(250, 250, 250)" stroke-width="3.3174440196829837" fill="none" stroke-opacity="0.6544647835514663"></rect></g><g transform="rotate(69.3 512 512)"><rect x="62.0" y="62.0" width="900" height="900" stroke="rgb(217, 217, 217)" stroke-width="3.4356904577699714" fill="none" stroke-opacity="0.7186289514033458"></rect></g><g transform="rotate(69.8775 512 512)"><rect x="59.0" y="59.0" width="906" height="906" stroke="rgb(133, 133, 133)" stroke-width="3.1032432310627502" fill="none" stroke-opacity="0.6249608037096577"></rect></g><g transform="rotate(70.455 512 512)"><rect x="56.0" y="56.0" width="912" height="912" stroke="rgb(137, 137, 137)" stroke-width="3.5033246592635128" fill="none" stroke-opacity="0.6111232293686351"></rect></g><g transform="rotate(71.0325 512 512)"><rect x="53.0" y="53.0" width="918" height="918" stroke="rgb(196, 196, 196)" stroke-width="3.2275881889271787" fill="none" stroke-opacity="0.6812611289165279"></rect></g><g transform="rotate(71.61000000000001 512 512)"><rect x="50.0" y="50.0" width="924" height="924" stroke="rgb(245, 245, 245)" stroke-width="3.6571747932167695" fill="none" stroke-opacity="0.7045511327210825"></rect></g><g transform="rotate(72.1875 512 512)"><rect x="47.0" y="47.0" width="930" height="930" stroke="rgb(149, 149, 149)" stroke-width="3.1143413712910615" fill="none" stroke-opacity="0.653639390135146"></rect></g><g transform="rotate(72.765 512 512)"><rect x="44.0" y="44.0" width="936" height="936" stroke="rgb(144, 144, 144)" stroke-width="3.8551267672819103" fill="none" stroke-opacity="0.6911005110865934"></rect></g><g transform="rotate(73.3425 512 512)"><rect x="41.0" y="41.0" width="942" height="942" stroke="rgb(121, 121, 121)" stroke-width="3.481620396256677" fill="none" stroke-opacity="0.7196379892114902"></rect></g><g transform="rotate(73.92 512 512)"><rect x="38.0" y="38.0" width="948" height="948" stroke="rgb(99, 99, 99)" stroke-width="3.603904261156181" fill="none" stroke-opacity="0.6780037484140814"></rect></g><g transform="rotate(74.4975 512 512)"><rect x="35.0" y="35.0" width="954" height="954" stroke="rgb(101, 101, 101)" stroke-width="3.101317302905282" fill="none" stroke-opacity="0.7605545387378543"></rect></g><g transform="rotate(75.075 512 512)"><rect x="32.0" y="32.0" width="960" height="960" stroke="rgb(202, 202, 202)" stroke-width="3.172297335585403" fill="none" stroke-opacity="0.6814016283830264"></rect></g><g transform="rotate(75.65249999999999 512 512)"><rect x="29.0" y="29.0" width="966" height="966" stroke="rgb(151, 151, 151)" stroke-width="3.085736228516565" fill="none" stroke-opacity="0.6958202235654933"></rect></g><g transform="rotate(76.23 512 512)"><rect x="26.0" y="26.0" width="972" height="972" stroke="rgb(181, 181, 181)" stroke-width="3.712065633296537" fill="none" stroke-opacity="0.7315564058847501"></rect></g><g transform="rotate(76.8075 512 512)"><rect x="23.0" y="23.0" width="978" height="978" stroke="rgb(196, 196, 196)" stroke-width="3.0754828259555995" fill="none" stroke-opacity="0.7245983649066404"></rect></g><g transform="rotate(77.385 512 512)"><rect x="20.0" y="20.0" width="984" height="984" stroke="rgb(196, 196, 196)" stroke-width="3.2227585799712037" fill="none" stroke-opacity="0.7661838959825276"></rect></g><g transform="rotate(77.9625 512 512)"><rect x="17.0" y="17.0" width="990" height="990" stroke="rgb(180, 180, 180)" stroke-width="3.888678708890091" fill="none" stroke-opacity="0.7127393143670164"></rect></g><g transform="rotate(78.53999999999999 512 512)"><rect x="14.0" y="14.0" width="996" height="996" stroke="rgb(150, 150, 150)" stroke-width="3.643554044126756" fill="none" stroke-opacity="0.691277271314216"></rect></g><g transform="rotate(79.1175 512 512)"><rect x="11.0" y="11.0" width="1002" height="1002" stroke="rgb(130, 130, 130)" stroke-width="3.2244985098379826" fill="none" stroke-opacity="0.7452031239524379"></rect></g><g transform="rotate(79.695 512 512)"><rect x="8.0" y="8.0" width="1008" height="1008" stroke="rgb(173, 173, 173)" stroke-width="3.898181342817404" fill="none" stroke-opacity="0.7386011794996501"></rect></g><g transform="rotate(80.27250000000001 512 512)"><rect x="5.0" y="5.0" width="1014" height="1014" stroke="rgb(210, 210, 210)" stroke-width="3.7992103892921407" fill="none" stroke-opacity="0.7999901908172917"></rect></g><g transform="rotate(80.85000000000001 512 512)"><rect x="2.0" y="2.0" width="1020" height="1020" stroke="rgb(171, 171, 171)" stroke-width="3.121152067316493" fill="none" stroke-opacity="0.7805408463833072"></rect></g><g transform="rotate(81.4275 512 512)"><rect x="-1.0" y="-1.0" width="1026" height="1026" stroke="rgb(223, 223, 223)" stroke-width="3.1887404759714886" fill="none" stroke-opacity="0.8230230068788325"></rect></g><g transform="rotate(82.00500000000001 512 512)"><rect x="-4.0" y="-4.0" width="1032" height="1032" stroke="rgb(150, 150, 150)" stroke-width="3.046081324518386" fill="none" stroke-opacity="0.8165534997526158"></rect></g><g transform="rotate(82.5825 512 512)"><rect x="-7.0" y="-7.0" width="1038" height="1038" stroke="rgb(136, 136, 136)" stroke-width="3.2198013754415333" fill="none" stroke-opacity="0.7618039618118241"></rect></g><g transform="rotate(83.16000000000001 512 512)"><rect x="-10.0" y="-10.0" width="1044" height="1044" stroke="rgb(148, 148, 148)" stroke-width="3.709180416905873" fill="none" stroke-opacity="0.8235544614051996"></rect></g><g transform="rotate(83.7375 512 512)"><rect x="-13.0" y="-13.0" width="1050" height="1050" stroke="rgb(172, 172, 172)" stroke-width="3.506473882491508" fill="none" stroke-opacity="0.781774148146445"></rect></g><g transform="rotate(84.315 512 512)"><rect x="-16.0" y="-16.0" width="1056" height="1056" stroke="rgb(166, 166, 166)" stroke-width="3.6105005918281057" fill="none" stroke-opacity="0.7860028904741687"></rect></g><g transform="rotate(84.8925 512 512)"><rect x="-19.0" y="-19.0" width="1062" height="1062" stroke="rgb(215, 215, 215)" stroke-width="3.888580607414551" fill="none" stroke-opacity="0.7723399945843241"></rect></g><g transform="rotate(85.47 512 512)"><rect x="-22.0" y="-22.0" width="1068" height="1068" stroke="rgb(246, 246, 246)" stroke-width="3.757790657452296" fill="none" stroke-opacity="0.8106669897834559"></rect></g><g transform="rotate(86.04750000000001 512 512)"><rect x="-25.0" y="-25.0" width="1074" height="1074" stroke="rgb(185, 185, 185)" stroke-width="3.7631425647598453" fill="none" stroke-opacity="0.8564762556251343"></rect></g><g transform="rotate(86.625 512 512)"><rect x="-28.0" y="-28.0" width="1080" height="1080" stroke="rgb(218, 218, 218)" stroke-width="3.8966121846728" fill="none" stroke-opacity="0.8623393824172381"></rect></g><g transform="rotate(87.2025 512 512)"><rect x="-31.0" y="-31.0" width="1086" height="1086" stroke="rgb(127, 127, 127)" stroke-width="3.484683406780555" fill="none" stroke-opacity="0.7895978225422433"></rect></g><g transform="rotate(87.78 512 512)"><rect x="-34.0" y="-34.0" width="1092" height="1092" stroke="rgb(151, 151, 151)" stroke-width="3.5874684328523845" fill="none" stroke-opacity="0.8185436877988718"></rect></g><g transform="rotate(88.3575 512 512)"><rect x="-37.0" y="-37.0" width="1098" height="1098" stroke="rgb(229, 229, 229)" stroke-width="3.971294158185233" fill="none" stroke-opacity="0.8261956522857986"></rect></g><g transform="rotate(88.935 512 512)"><rect x="-40.0" y="-40.0" width="1104" height="1104" stroke="rgb(242, 242, 242)" stroke-width="3.836109828623215" fill="none" stroke-opacity="0.7902858545115741"></rect></g><g transform="rotate(89.5125 512 512)"><rect x="-43.0" y="-43.0" width="1110" height="1110" stroke="rgb(168, 168, 168)" stroke-width="3.9214642621308644" fill="none" stroke-opacity="0.8242152585859815"></rect></g><g transform="rotate(90.09 512 512)"><rect x="-46.0" y="-46.0" width="1116" height="1116" stroke="rgb(213, 213, 213)" stroke-width="3.004964296608231" fill="none" stroke-opacity="0.8985304041468074"></rect></g><g transform="rotate(90.6675 512 512)"><rect x="-49.0" y="-49.0" width="1122" height="1122" stroke="rgb(114, 114, 114)" stroke-width="3.6051215831121683" fill="none" stroke-opacity="0.8277147434780083"></rect></g><g transform="rotate(91.245 512 512)"><rect x="-52.0" y="-52.0" width="1128" height="1128" stroke="rgb(192, 192, 192)" stroke-width="3.848017240127657" fill="none" stroke-opacity="0.8445541107934689"></rect></g><g transform="rotate(91.8225 512 512)"><rect x="-55.0" y="-55.0" width="1134" height="1134" stroke="rgb(203, 203, 203)" stroke-width="3.227629879120279" fill="none" stroke-opacity="0.8573535383621136"></rect></g><g transform="rotate(92.4 512 512)"><rect x="-58.0" y="-58.0" width="1140" height="1140" stroke="rgb(105, 105, 105)" stroke-width="3.412767501800645" fill="none" stroke-opacity="0.865988366881209"></rect></g><g transform="rotate(92.97749999999999 512 512)"><rect x="-61.0" y="-61.0" width="1146" height="1146" stroke="rgb(99, 99, 99)" stroke-width="3.5173126062848956" fill="none" stroke-opacity="0.8753469332662159"></rect></g><g transform="rotate(93.555 512 512)"><rect x="-64.0" y="-64.0" width="1152" height="1152" stroke="rgb(115, 115, 115)" stroke-width="3.2635761452018306" fill="none" stroke-opacity="0.921906947556991"></rect></g><g transform="rotate(94.1325 512 512)"><rect x="-67.0" y="-67.0" width="1158" height="1158" stroke="rgb(252, 252, 252)" stroke-width="3.298183147506141" fill="none" stroke-opacity="0.8777737944664844"></rect></g><g transform="rotate(94.71000000000001 512 512)"><rect x="-70.0" y="-70.0" width="1164" height="1164" stroke="rgb(180, 180, 180)" stroke-width="3.1013868767295873" fill="none" stroke-opacity="0.9420575184236025"></rect></g><g transform="rotate(95.28750000000001 512 512)"><rect x="-73.0" y="-73.0" width="1170" height="1170" stroke="rgb(104, 104, 104)" stroke-width="3.6758599354756765" fill="none" stroke-opacity="0.8563785567987492"></rect></g><g transform="rotate(95.865 512 512)"><rect x="-76.0" y="-76.0" width="1176" height="1176" stroke="rgb(175, 175, 175)" stroke-width="3.314144106474515" fill="none" stroke-opacity="0.830442090330725"></rect></g><g transform="rotate(96.44250000000001 512 512)"><rect x="-79.0" y="-79.0" width="1182" height="1182" stroke="rgb(156, 156, 156)" stroke-width="3.5851551277901357" fill="none" stroke-opacity="0.8520810752646185"></rect></g><g transform="rotate(97.02 512 512)"><rect x="-82.0" y="-82.0" width="1188" height="1188" stroke="rgb(246, 246, 246)" stroke-width="3.7971009799905944" fill="none" stroke-opacity="0.9172019041252938"></rect></g><g transform="rotate(97.59750000000001 512 512)"><rect x="-85.0" y="-85.0" width="1194" height="1194" stroke="rgb(131, 131, 131)" stroke-width="3.2746955046252015" fill="none" stroke-opacity="0.8713510132273063"></rect></g><g transform="rotate(98.175 512 512)"><rect x="-88.0" y="-88.0" width="1200" height="1200" stroke="rgb(188, 188, 188)" stroke-width="3.367558215839637" fill="none" stroke-opacity="0.9337937980011016"></rect></g><g transform="rotate(98.7525 512 512)"><rect x="-91.0" y="-91.0" width="1206" height="1206" stroke="rgb(227, 227, 227)" stroke-width="3.992437496792233" fill="none" stroke-opacity="0.9539530667810137"></rect></g><g transform="rotate(99.33 512 512)"><rect x="-94.0" y="-94.0" width="1212" height="1212" stroke="rgb(167, 167, 167)" stroke-width="3.1774883185708727" fill="none" stroke-opacity="0.9230048333965672"></rect></g><g transform="rotate(99.9075 512 512)"><rect x="-97.0" y="-97.0" width="1218" height="1218" stroke="rgb(231, 231, 231)" stroke-width="3.2944732231967686" fill="none" stroke-opacity="0.8685963568820418"></rect></g><g transform="rotate(100.48500000000001 512 512)"><rect x="-100.0" y="-100.0" width="1224" height="1224" stroke="rgb(205, 205, 205)" stroke-width="3.4411929086171336" fill="none" stroke-opacity="0.871546476593359"></rect></g><g transform="rotate(101.0625 512 512)"><rect x="-103.0" y="-103.0" width="1230" height="1230" stroke="rgb(162, 162, 162)" stroke-width="3.839614454296489" fill="none" stroke-opacity="0.9329801668751653"></rect></g><g transform="rotate(101.64 512 512)"><rect x="-106.0" y="-106.0" width="1236" height="1236" stroke="rgb(226, 226, 226)" stroke-width="3.8629469283235114" fill="none" stroke-opacity="0.8900145773747679"></rect></g><g transform="rotate(102.2175 512 512)"><rect x="-109.0" y="-109.0" width="1242" height="1242" stroke="rgb(202, 202, 202)" stroke-width="3.018535821598074" fill="none" stroke-opacity="0.9581086026251404"></rect></g><g transform="rotate(102.795 512 512)"><rect x="-112.0" y="-112.0" width="1248" height="1248" stroke="rgb(225, 225, 225)" stroke-width="3.018964254140485" fill="none" stroke-opacity="0.902472171786596"></rect></g><g transform="rotate(103.3725 512 512)"><rect x="-115.0" y="-115.0" width="1254" height="1254" stroke="rgb(103, 103, 103)" stroke-width="3.766528348607573" fill="none" stroke-opacity="0.9765219385346505"></rect></g><g transform="rotate(103.95 512 512)"><rect x="-118.0" y="-118.0" width="1260" height="1260" stroke="rgb(196, 196, 196)" stroke-width="3.3445610728140185" fill="none" stroke-opacity="0.9599931131085814"></rect></g><g transform="rotate(104.5275 512 512)"><rect x="-121.0" y="-121.0" width="1266" height="1266" stroke="rgb(126, 126, 126)" stroke-width="3.3440619747543376" fill="none" stroke-opacity="0.9559706879980815"></rect></g><g transform="rotate(105.105 512 512)"><rect x="-124.0" y="-124.0" width="1272" height="1272" stroke="rgb(155, 155, 155)" stroke-width="3.8548065587718003" fill="none" stroke-opacity="1.0042397770131442"></rect></g><g transform="rotate(105.6825 512 512)"><rect x="-127.0" y="-127.0" width="1278" height="1278" stroke="rgb(95, 95, 95)" stroke-width="3.863399909653765" fill="none" stroke-opacity="0.933731969078688"></rect></g><g transform="rotate(106.26 512 512)"><rect x="-130.0" y="-130.0" width="1284" height="1284" stroke="rgb(248, 248, 248)" stroke-width="3.417070871303471" fill="none" stroke-opacity="1.0106909271679856"></rect></g><g transform="rotate(106.8375 512 512)"><rect x="-133.0" y="-133.0" width="1290" height="1290" stroke="rgb(240, 240, 240)" stroke-width="3.969601028933186" fill="none" stroke-opacity="0.9821634583733885"></rect></g><g transform="rotate(107.41499999999999 512 512)"><rect x="-136.0" y="-136.0" width="1296" height="1296" stroke="rgb(238, 238, 238)" stroke-width="3.7566699655946283" fill="none" stroke-opacity="0.9619988250981022"></rect></g><g transform="rotate(107.9925 512 512)"><rect x="-139.0" y="-139.0" width="1302" height="1302" stroke="rgb(223, 223, 223)" stroke-width="3.1306594360682856" fill="none" stroke-opacity="0.9546190768145615"></rect></g><g transform="rotate(108.57 512 512)"><rect x="-142.0" y="-142.0" width="1308" height="1308" stroke="rgb(182, 182, 182)" stroke-width="3.950349735147259" fill="none" stroke-opacity="1.0402601402723353"></rect></g><g transform="rotate(109.14750000000001 512 512)"><rect x="-145.0" y="-145.0" width="1314" height="1314" stroke="rgb(99, 99, 99)" stroke-width="3.687663468853237" fill="none" stroke-opacity="1.0616583079912851"></rect></g><g transform="rotate(109.72500000000001 512 512)"><rect x="-148.0" y="-148.0" width="1320" height="1320" stroke="rgb(187, 187, 187)" stroke-width="3.3128618577989064" fill="none" stroke-opacity="1.0387142372364533"></rect></g><g transform="rotate(110.3025 512 512)"><rect x="-151.0" y="-151.0" width="1326" height="1326" stroke="rgb(117, 117, 117)" stroke-width="3.598231236406214" fill="none" stroke-opacity="1.0736972748709963"></rect></g><g transform="rotate(110.88000000000001 512 512)"><rect x="-154.0" y="-154.0" width="1332" height="1332" stroke="rgb(149, 149, 149)" stroke-width="3.2536923240724063" fill="none" stroke-opacity="1.0716262685675202"></rect></g><g transform="rotate(111.4575 512 512)"><rect x="-157.0" y="-157.0" width="1338" height="1338" stroke="rgb(214, 214, 214)" stroke-width="3.064746517815065" fill="none" stroke-opacity="1.036238917756858"></rect></g><g transform="rotate(112.03500000000001 512 512)"><rect x="-160.0" y="-160.0" width="1344" height="1344" stroke="rgb(138, 138, 138)" stroke-width="3.1465779305693435" fill="none" stroke-opacity="1.0673209201245508"></rect></g><g transform="rotate(112.6125 512 512)"><rect x="-163.0" y="-163.0" width="1350" height="1350" stroke="rgb(177, 177, 177)" stroke-width="3.0658500296054103" fill="none" stroke-opacity="1.0374303128398477"></rect></g><g transform="rotate(113.19 512 512)"><rect x="-166.0" y="-166.0" width="1356" height="1356" stroke="rgb(139, 139, 139)" stroke-width="3.8643645946261884" fill="none" stroke-opacity="1.0995656196258121"></rect></g><g transform="rotate(113.7675 512 512)"><rect x="-169.0" y="-169.0" width="1362" height="1362" stroke="rgb(247, 247, 247)" stroke-width="3.7511345474648454" fill="none" stroke-opacity="1.0575104071226067"></rect></g><g transform="rotate(114.345 512 512)"><rect x="-172.0" y="-172.0" width="1368" height="1368" stroke="rgb(161, 161, 161)" stroke-width="3.5647423537399554" fill="none" stroke-opacity="1.0636780770542695"></rect></g><g transform="rotate(114.92250000000001 512 512)"><rect x="-175.0" y="-175.0" width="1374" height="1374" stroke="rgb(183, 183, 183)" stroke-width="3.4640732715525817" fill="none" stroke-opacity="1.1122986165877102"></rect></g></svg>